HIERARCHY
ROOT Hips
{
  OFFSET 0.000000 0.000000 0.000000
  CHANNELS 6 Xposition Yposition Zposition Xrotation Yrotation Zrotation
  JOINT Spine
  {
    OFFSET 1.388230 22.849755 -8.157144
    CHANNELS 3 Xrotation Yrotation Zrotation
    JOINT Chest
    {
      OFFSET 1.388230 22.849755 -8.157144
      CHANNELS 3 Xrotation Yrotation Zrotation
      JOINT Neck
      {
        OFFSET 0.386562 8.498444 -3.690407
        CHANNELS 3 Xrotation Yrotation Zrotation
        JOINT Head
        {
          OFFSET 0.662911 7.396516 -7.447500
          CHANNELS 3 Xrotation Yrotation Zrotation
          End Site
          {
            OFFSET 0.198873 2.218955 -2.234250
          }
        }
      }
      JOINT LeftShoulder
      {
        OFFSET 17.248308 -1.208605 -0.261267
        CHANNELS 3 Xrotation Yrotation Zrotation
        JOINT LeftArm
        {
          OFFSET 7.635523 -21.435821 1.774202
          CHANNELS 3 Xrotation Yrotation Zrotation
          JOINT LeftForeArm
          {
            OFFSET 7.643843 -21.327462 -9.147581
            CHANNELS 3 Xrotation Yrotation Zrotation
            JOINT LeftHand
            {
              OFFSET 0.473402 -5.275506 -2.178749
              CHANNELS 3 Xrotation Yrotation Zrotation
              End Site
              {
                OFFSET 0.142021 -1.582652 -0.653625
              }
            }
          }
        }
      }
      JOINT RightShoulder
      {
        OFFSET -17.248308 1.208605 0.261267
        CHANNELS 3 Xrotation Yrotation Zrotation
        JOINT RightArm
        {
          OFFSET -12.133127 -21.363330 5.693170
          CHANNELS 3 Xrotation Yrotation Zrotation
          JOINT RightForeArm
          {
            OFFSET -7.740244 -22.047532 -5.230031
            CHANNELS 3 Xrotation Yrotation Zrotation
            JOINT RightHand
            {
              OFFSET -0.480044 -5.557554 -1.525311
              CHANNELS 3 Xrotation Yrotation Zrotation
              End Site
              {
                OFFSET -0.144013 -1.667266 -0.457593
              }
            }
          }
        }
      }
    }
  }
  JOINT LeftUpLeg
  {
    OFFSET 11.699587 -0.675443 -0.599665
    CHANNELS 3 Xrotation Yrotation Zrotation
    JOINT LeftLeg
    {
      OFFSET -6.527727 -38.483662 1.737457
      CHANNELS 3 Xrotation Yrotation Zrotation
      JOINT LeftFoot
      {
        OFFSET 3.065902 -35.809878 12.679608
        CHANNELS 3 Xrotation Yrotation Zrotation
        End Site
        {
          OFFSET 0.919771 -10.742963 3.803882
        }
      }
    }
  }
  JOINT RightUpLeg
  {
    OFFSET -11.699587 0.675443 0.599665
    CHANNELS 3 Xrotation Yrotation Zrotation
    JOINT RightLeg
    {
      OFFSET -1.173808 -37.981520 -1.210152
      CHANNELS 3 Xrotation Yrotation Zrotation
      JOINT RightFoot
      {
        OFFSET -7.846448 -39.021816 7.691272
        CHANNELS 3 Xrotation Yrotation Zrotation
        End Site
        {
          OFFSET -2.353934 -11.706545 2.307382
        }
      }
    }
  }
}
MOTION
Frames: 8
Frame Time: 0.083333
-0.693806 59.835509 -3.658586 -0.761052 0.042716 -0.010551 0.000000 0.000000 0.000000 0.914223 -0.025391 0.068493 -0.053952 -0.029528 -0.059995 5.000000 0.000000 0.000000 -0.255197 0.026549 0.488840 0.706479 -0.150146 -0.187996 75.390193 -43.724609 32.346925 0.000000 0.000000 0.000000 2.277950 -1.346490 0.313060 0.708457 1.033949 -0.182272 26.001856 41.127617 -77.513825 0.000000 0.000000 0.000000 -6.489013 1.774657 5.223733 11.616441 -2.707794 -5.658593 0.000000 0.000000 0.000000 -6.066822 0.168716 -0.276457 4.946462 0.485266 1.467873 0.000000 0.000000 0.000000
-1.213096 59.708841 -6.009746 -0.775103 0.044211 -0.008912 0.000000 0.000000 0.000000 0.927364 -0.025755 0.069628 -0.053473 -0.030468 -0.062450 5.000000 0.000000 0.000000 -0.291724 -0.024544 0.418123 0.796927 -0.096858 -0.167085 36.324411 -50.020182 63.886131 0.000000 0.000000 0.000000 1.988509 -1.159122 0.268913 0.630538 0.878510 -0.178598 58.796099 42.422009 -47.866711 0.000000 0.000000 0.000000 -6.473089 1.764902 5.182865 11.595820 -2.738493 -5.790155 0.000000 0.000000 0.000000 -6.043141 0.165962 -0.308764 5.591189 0.340372 1.455988 0.000000 0.000000 0.000000
-1.971516 59.447690 -8.692153 -0.775621 0.044270 -0.008842 0.000000 0.000000 0.000000 0.927875 -0.025775 0.069662 -0.053455 -0.030501 -0.062538 5.000000 0.000000 0.000000 -0.903477 -0.197269 1.036087 2.438014 -0.153399 -0.459786 32.216407 -50.671776 66.754561 0.000000 0.000000 0.000000 4.805753 -2.766783 0.601692 1.461754 2.074100 -0.485822 53.526860 43.261385 -52.112722 0.000000 0.000000 0.000000 -5.214871 1.649969 4.702918 8.750775 -1.710256 -2.479495 0.000000 0.000000 0.000000 -6.793218 0.161997 0.404265 1.907099 1.351597 0.430836 0.000000 0.000000 0.000000
-2.346938 59.144221 -8.380250 -2.161961 0.142330 0.024566 0.000000 0.000000 0.000000 2.398889 -0.066792 0.185759 -0.084001 -0.090772 -0.203832 5.000000 0.000000 0.000000 -1.327272 -0.487250 1.285524 3.603956 -0.050000 -0.743555 30.540946 -50.947224 68.245240 0.000000 0.000000 0.000000 5.152302 -2.944284 0.360885 1.164966 2.203135 -0.585719 43.058243 44.113691 -61.343194 0.000000 0.000000 0.000000 -4.603422 1.629001 4.658947 7.845797 -1.664991 -2.159497 0.000000 0.000000 0.000000 -7.332775 0.109324 0.125607 3.668749 1.321317 0.834518 0.000000 0.000000 0.000000
-2.601003 58.817535 -7.496082 -3.055742 0.253554 0.170264 0.000000 0.000000 0.000000 3.027000 -0.087316 0.242990 0.017161 -0.149948 -0.375191 5.000000 0.000000 0.000000 -0.956242 -0.337257 1.741320 2.970807 -0.318615 -1.222032 39.971888 -51.095584 60.551899 0.000000 0.000000 0.000000 5.297648 -3.250314 -0.340571 0.270952 2.623092 -0.347727 18.278409 43.476979 -81.236462 0.000000 0.000000 0.000000 -4.803106 1.780831 5.544727 9.666215 -2.495193 -4.262327 0.000000 0.000000 0.000000 -7.568065 0.016838 -0.971871 5.692846 1.380869 2.978738 0.000000 0.000000 0.000000
-2.757591 58.578195 -7.669227 -3.272165 0.325639 0.318652 0.000000 0.000000 0.000000 3.307318 -0.116448 0.230697 0.030905 -0.190246 -0.485444 5.000000 0.000000 0.000000 -0.537647 -0.239817 1.861966 2.835554 -0.471116 -1.389708 4.053151 -47.399740 89.994152 0.000000 0.000000 0.000000 5.725659 -3.695210 -1.261845 0.203989 3.100206 0.122917 11.448626 42.280049 -86.540011 0.000000 0.000000 0.000000 -3.935162 1.655796 5.621465 9.866354 -2.522698 -4.519404 0.000000 0.000000 0.000000 -6.974668 -0.081488 -1.123759 6.101536 1.370346 3.207853 0.000000 0.000000 0.000000
-2.844009 58.453451 -7.997009 -3.941090 0.447478 0.512848 0.000000 0.000000 0.000000 3.931132 -0.210901 0.144520 0.060268 -0.208616 -0.555199 5.000000 0.000000 0.000000 -0.787273 -0.491324 1.665502 4.796746 -0.483470 -0.867864 -34.648135 -7.717885 66.611559 0.000000 0.000000 0.000000 5.941622 -3.894340 -2.183201 0.779478 3.210367 0.908578 14.413773 43.017389 -83.774052 0.000000 0.000000 0.000000 -2.967588 1.451582 5.341757 9.713035 -2.569592 -4.766829 0.000000 0.000000 0.000000 -6.187936 -0.244916 -1.392365 5.707936 1.465844 3.139116 0.000000 0.000000 0.000000
-2.970826 58.436627 -8.454441 -4.815133 0.649222 0.863515 0.000000 0.000000 0.000000 4.506480 -0.378762 -0.082704 0.141593 -0.197324 -0.599791 5.000000 0.000000 0.000000 -1.980490 -1.010416 1.737379 9.536135 -0.914986 0.416995 0.000000 0.000000 0.000000 0.000000 0.000000 0.000000 7.086469 -4.656824 -3.624293 1.410487 3.762808 2.411511 31.763245 45.933352 -68.983202 0.000000 0.000000 0.000000 -2.273691 1.265113 5.154674 9.250854 -2.611158 -5.115392 0.000000 0.000000 0.000000 -5.728065 -0.393278 -1.813507 5.256834 1.607783 3.267392 0.000000 0.000000 0.000000
